<svg width="38" height="29" viewBox="0 0 38 29" fill="none" xmlns="http://www.w3.org/2000/svg">
<path d="M24.9925 19.53C23.1038 19.4062 21.6187 17.8437 21.6187 15.9337C21.6187 15.87 21.62 15.8062 21.6238 15.7425V15.7512C21.62 15.6912 21.6175 15.6212 21.6175 15.55C21.6175 13.6437 23.105 12.0862 24.9825 11.9725H24.9925C26.8788 12.075 28.3688 13.6287 28.3688 15.5312C28.3688 15.6087 28.3663 15.685 28.3613 15.7612V15.7512C28.365 15.8137 28.3675 15.8875 28.3675 15.9612C28.3675 17.865 26.8788 19.4212 25.0013 19.5287H24.9912L24.9925 19.53ZM12.535 19.53C10.6462 19.4062 9.16125 17.8437 9.16125 15.9337C9.16125 15.87 9.1625 15.8062 9.16625 15.7425V15.7512C9.1625 15.6912 9.16 15.6212 9.16 15.55C9.16 13.6437 10.6475 12.0862 12.525 11.9725H12.535C14.4212 12.075 15.9113 13.6287 15.9113 15.5312C15.9113 15.6087 15.9087 15.685 15.9037 15.7612V15.7512C15.9075 15.8112 15.91 15.8812 15.91 15.9525C15.91 17.8587 14.4225 19.4162 12.545 19.53H12.535ZM31.7438 2.4075C29.54 1.3675 26.98 0.544999 24.3 0.0687497L24.1138 0.04125C24.1075 0.04 24.1 0.0387501 24.0925 0.0387501C24.0487 0.0387501 24.0113 0.0625 23.9913 0.0975C23.6988 0.61125 23.3813 1.2525 23.095 1.91L23.0413 2.04875C21.7537 1.8425 20.2687 1.725 18.7563 1.725C17.2437 1.725 15.7587 1.8425 14.31 2.06875L14.4712 2.0475C14.1337 1.26 13.8112 0.619999 13.455 0L13.5063 0.0962501C13.485 0.0600001 13.4462 0.0374996 13.4025 0.0374996C13.3962 0.0374996 13.3888 0.0375001 13.3825 0.0387501C10.5163 0.5425 7.95625 1.36375 5.56375 2.485L5.7525 2.405C5.73125 2.41375 5.71375 2.42875 5.7025 2.4475C2.135 7.49874 0 13.7837 0 20.5675C0 21.7012 0.06 22.82 0.17625 23.9225L0.165 23.785C0.16875 23.8212 0.1875 23.8512 0.21375 23.8725C2.88875 25.8737 5.99875 27.4862 9.355 28.545L9.575 28.605C9.585 28.6087 9.5975 28.61 9.61 28.61C9.65 28.61 9.685 28.5912 9.70625 28.5625C10.375 27.6625 11.0112 26.6425 11.5625 25.5725L11.6213 25.4475C11.6287 25.4325 11.6337 25.4137 11.6337 25.3937C11.6337 25.3425 11.6012 25.3 11.5562 25.2825H11.555C10.415 24.8425 9.45125 24.3737 8.53375 23.8362L8.63 23.8887C8.59375 23.8675 8.57 23.8287 8.57 23.785C8.57 23.7462 8.58875 23.7112 8.6175 23.69C8.81375 23.5425 9.01125 23.39 9.19875 23.235C9.21875 23.2187 9.245 23.2087 9.2725 23.2087C9.29 23.2087 9.30625 23.2125 9.32 23.2187H9.31875C12.0787 24.545 15.3188 25.32 18.7388 25.32C22.1588 25.32 25.4 24.545 28.2925 23.1612L28.1588 23.2187C28.1737 23.2112 28.19 23.2075 28.2088 23.2075C28.2363 23.2075 28.2625 23.2175 28.2825 23.2337C28.47 23.3887 28.6663 23.5437 28.865 23.69C28.8938 23.7125 28.9125 23.7475 28.9125 23.7862C28.9125 23.83 28.8888 23.8675 28.855 23.8887C28.0288 24.3825 27.065 24.85 26.0613 25.2362L25.93 25.2812C25.885 25.2987 25.8525 25.3425 25.8525 25.3925C25.8525 25.4125 25.8575 25.4312 25.8663 25.4475C26.4925 26.6475 27.1275 27.665 27.83 28.6312L27.78 28.56C27.8013 28.59 27.8375 28.61 27.8763 28.61C27.8888 28.61 27.9013 28.6075 27.9125 28.605C31.4937 27.49 34.6087 25.8775 37.3688 23.815L37.2875 23.8737C37.315 23.8537 37.3325 23.8225 37.3363 23.7875C37.445 22.8075 37.5063 21.67 37.5063 20.5187C37.5063 13.75 35.3662 7.48124 31.7275 2.35125L31.7925 2.44875C31.7825 2.42875 31.765 2.4125 31.745 2.40375L31.7438 2.4075Z" fill="white"/>
</svg>
