<svg width="901" height="213" viewBox="0 0 901 213" fill="none" xmlns="http://www.w3.org/2000/svg">
<path d="M29.84 157.8C27.8133 157.8 26.1067 157.107 24.72 155.72C23.3333 154.333 22.64 152.627 22.64 150.6V46.76C22.64 44.6267 23.3333 42.8667 24.72 41.48C26.1067 40.0933 27.8133 39.4 29.84 39.4C31.8667 39.4 33.5733 40.0933 34.96 41.48C36.4533 42.8667 37.2 44.6267 37.2 46.76V88.52C40.6133 84.7867 44.6133 81.4267 49.2 78.44C53.8933 75.3467 59.8133 73.8 66.96 73.8C73.04 73.8 78.2133 75.24 82.48 78.12C86.7467 80.8933 90 84.68 92.24 89.48C94.48 94.1733 95.6 99.4 95.6 105.16V150.6C95.6 152.627 94.8533 154.333 93.36 155.72C91.9733 157.107 90.2667 157.8 88.24 157.8C86.2133 157.8 84.5067 157.107 83.12 155.72C81.7333 154.333 81.04 152.627 81.04 150.6V106.76C81.04 100.68 79.6533 95.9333 76.88 92.52C74.2133 89 69.7333 87.24 63.44 87.24C57.68 87.24 52.6667 88.7867 48.4 91.88C44.1333 94.9733 40.4 98.5467 37.2 102.6V150.6C37.2 152.627 36.4533 154.333 34.96 155.72C33.5733 157.107 31.8667 157.8 29.84 157.8ZM156.14 158.6C147.927 158.6 140.727 156.84 134.54 153.32C128.353 149.693 123.553 144.733 120.14 138.44C116.833 132.04 115.18 124.627 115.18 116.2C115.18 107.773 116.833 100.413 120.14 94.12C123.553 87.72 128.353 82.76 134.54 79.24C140.727 75.6133 147.927 73.8 156.14 73.8C164.353 73.8 171.5 75.6133 177.58 79.24C183.767 82.76 188.567 87.72 191.98 94.12C195.393 100.413 197.1 107.773 197.1 116.2C197.1 124.627 195.393 132.04 191.98 138.44C188.567 144.733 183.767 149.693 177.58 153.32C171.5 156.84 164.353 158.6 156.14 158.6ZM156.14 145.32C160.193 145.32 164.247 144.36 168.3 142.44C172.353 140.52 175.713 137.427 178.38 133.16C181.153 128.787 182.54 123.08 182.54 116.04C182.54 109 181.153 103.347 178.38 99.08C175.713 94.8133 172.353 91.7733 168.3 89.96C164.247 88.04 160.193 87.08 156.14 87.08C152.087 87.08 147.98 88.04 143.82 89.96C139.767 91.7733 136.407 94.8133 133.74 99.08C131.073 103.347 129.74 109 129.74 116.04C129.74 123.08 131.073 128.787 133.74 133.16C136.407 137.427 139.767 140.52 143.82 142.44C147.98 144.36 152.087 145.32 156.14 145.32ZM224.684 157.8C222.657 157.8 220.95 157.107 219.564 155.72C218.177 154.333 217.484 152.627 217.484 150.6V81.96C217.484 79.8267 218.177 78.0667 219.564 76.68C220.95 75.2933 222.657 74.6 224.684 74.6C226.71 74.6 228.417 75.2933 229.804 76.68C231.297 78.0667 232.044 79.8267 232.044 81.96V88.52C235.457 84.7867 239.457 81.4267 244.044 78.44C248.737 75.3467 254.657 73.8 261.804 73.8C267.884 73.8 273.057 75.24 277.324 78.12C281.59 80.8933 284.844 84.68 287.084 89.48C289.324 94.1733 290.444 99.4 290.444 105.16V150.6C290.444 152.627 289.697 154.333 288.204 155.72C286.817 157.107 285.11 157.8 283.084 157.8C281.057 157.8 279.35 157.107 277.964 155.72C276.577 154.333 275.884 152.627 275.884 150.6V106.76C275.884 100.68 274.497 95.9333 271.724 92.52C269.057 89 264.577 87.24 258.284 87.24C252.524 87.24 247.51 88.7867 243.244 91.88C238.977 94.9733 235.244 98.5467 232.044 102.6V150.6C232.044 152.627 231.297 154.333 229.804 155.72C228.417 157.107 226.71 157.8 224.684 157.8ZM351.464 158.6C338.45 158.6 328.264 154.92 320.904 147.56C313.65 140.093 310.024 129.64 310.024 116.2C310.024 108.947 311.357 102.12 314.024 95.72C316.69 89.2133 320.85 83.9333 326.504 79.88C332.157 75.8267 339.41 73.8 348.264 73.8C356.477 73.8 363.41 75.72 369.064 79.56C374.717 83.2933 378.984 88.2 381.864 94.28C384.85 100.36 386.344 106.973 386.344 114.12C386.344 116.147 385.65 117.853 384.264 119.24C382.984 120.627 381.224 121.32 378.984 121.32H324.744C325.597 128.467 328.317 134.227 332.904 138.6C337.49 142.867 344.104 145 352.744 145C357.544 145 361.597 144.573 364.904 143.72C368.21 142.76 371.357 141.533 374.344 140.04C375.197 139.613 376.157 139.4 377.224 139.4C378.93 139.4 380.424 139.987 381.704 141.16C382.984 142.333 383.624 143.827 383.624 145.64C383.624 146.92 383.197 148.093 382.344 149.16C381.597 150.12 380.637 150.92 379.464 151.56C375.944 153.587 372.104 155.293 367.944 156.68C363.89 157.96 358.397 158.6 351.464 158.6ZM324.744 109.48H371.944C371.624 103.933 370.184 99.4533 367.624 96.04C365.17 92.6267 362.184 90.12 358.664 88.52C355.144 86.92 351.677 86.12 348.264 86.12C344.85 86.12 341.384 86.92 337.864 88.52C334.344 90.12 331.357 92.6267 328.904 96.04C326.45 99.4533 325.064 103.933 324.744 109.48ZM432.009 158.6C426.142 158.6 420.809 157.96 416.009 156.68C411.315 155.4 406.942 153.64 402.889 151.4C401.075 150.12 400.169 148.36 400.169 146.12C400.169 144.52 400.755 143.08 401.929 141.8C403.102 140.413 404.595 139.72 406.409 139.72C407.369 139.72 408.329 139.933 409.289 140.36C412.169 141.64 415.315 142.76 418.729 143.72C422.249 144.68 426.355 145.16 431.049 145.16C437.235 145.16 441.715 144.2 444.489 142.28C447.369 140.253 448.809 137.427 448.809 133.8C448.809 131.453 447.635 129.64 445.289 128.36C443.049 127.08 440.062 126.013 436.329 125.16C432.702 124.2 428.862 123.24 424.809 122.28C420.755 121.213 416.862 119.827 413.129 118.12C409.502 116.307 406.515 113.907 404.169 110.92C401.929 107.827 400.809 103.88 400.809 99.08C400.809 91.8267 403.422 85.8 408.649 81C413.875 76.2 421.662 73.8 432.009 73.8C436.382 73.8 440.489 74.1733 444.329 74.92C448.275 75.6667 451.902 76.6267 455.209 77.8C456.702 78.2267 457.822 79.08 458.569 80.36C459.422 81.5333 459.849 82.7067 459.849 83.88C459.849 85.5867 459.209 87.08 457.929 88.36C456.755 89.64 455.262 90.28 453.449 90.28C453.022 90.28 452.649 90.28 452.329 90.28C452.009 90.1733 451.689 90.0667 451.369 89.96C448.809 89.1067 445.982 88.4133 442.889 87.88C439.902 87.3467 436.649 87.08 433.129 87.08C427.262 87.08 422.729 88.1467 419.529 90.28C416.329 92.4133 414.729 95.08 414.729 98.28C414.729 101.053 415.849 103.187 418.089 104.68C420.435 106.173 423.422 107.4 427.049 108.36C430.782 109.213 434.675 110.12 438.729 111.08C442.889 112.04 446.782 113.427 450.409 115.24C454.142 116.947 457.129 119.347 459.369 122.44C461.715 125.533 462.889 129.693 462.889 134.92C462.889 141.427 460.275 147.027 455.049 151.72C449.929 156.307 442.249 158.6 432.009 158.6ZM510.019 158.6C508.099 158.6 505.805 158.387 503.139 157.96C500.579 157.64 498.019 156.84 495.459 155.56C493.005 154.173 490.925 152.04 489.219 149.16C487.512 146.28 486.659 142.387 486.659 137.48V87.88H475.299C473.272 87.88 472.259 86.8667 472.259 84.84C472.259 83.7733 472.739 82.8667 473.699 82.12L495.459 60.84C495.672 60.6267 495.992 60.36 496.419 60.04C496.952 59.6133 497.539 59.4 498.179 59.4C499.032 59.4 499.725 59.72 500.259 60.36C500.899 61 501.219 61.7467 501.219 62.6V75.4H519.299C521.112 75.4 522.605 75.9867 523.779 77.16C524.952 78.3333 525.539 79.8267 525.539 81.64C525.539 83.3467 524.952 84.84 523.779 86.12C522.605 87.2933 521.112 87.88 519.299 87.88H501.219V136.2C501.219 139.293 501.805 141.533 502.979 142.92C504.152 144.307 505.539 145.16 507.139 145.48C508.845 145.693 510.339 145.8 511.619 145.8C514.179 145.8 516.045 145.587 517.219 145.16C518.499 144.627 519.832 144.36 521.219 144.36C522.712 144.36 524.045 144.893 525.219 145.96C526.392 147.027 526.979 148.413 526.979 150.12C526.979 152.573 525.752 154.44 523.299 155.72C521.379 156.573 519.299 157.267 517.059 157.8C514.925 158.333 512.579 158.6 510.019 158.6Z" fill="#4FC3F7"/>
<path d="M546.84 157.8C544.813 157.8 543.107 157.107 541.72 155.72C540.333 154.333 539.64 152.627 539.64 150.6V81.96C539.64 79.9333 540.333 78.2267 541.72 76.84C543.107 75.3467 544.813 74.6 546.84 74.6C548.867 74.6 550.573 75.3467 551.96 76.84C553.453 78.2267 554.2 79.9333 554.2 81.96V88.84C557.08 85 560.6 81.5333 564.76 78.44C568.92 75.3467 573.773 73.8 579.32 73.8H580.12C582.147 73.8 583.8 74.4933 585.08 75.88C586.467 77.2667 587.16 78.9733 587.16 81C587.16 83.0267 586.467 84.68 585.08 85.96C583.693 87.24 581.933 87.88 579.8 87.88H579C573.773 87.88 569.027 89.2133 564.76 91.88C560.493 94.44 556.973 97.8 554.2 101.96V150.6C554.2 152.627 553.453 154.333 551.96 155.72C550.573 157.107 548.867 157.8 546.84 157.8ZM634.546 158.6C626.333 158.6 619.133 156.84 612.946 153.32C606.76 149.693 601.96 144.733 598.546 138.44C595.24 132.04 593.586 124.627 593.586 116.2C593.586 107.773 595.24 100.413 598.546 94.12C601.96 87.72 606.76 82.76 612.946 79.24C619.133 75.6133 626.333 73.8 634.546 73.8C642.76 73.8 649.906 75.6133 655.986 79.24C662.173 82.76 666.973 87.72 670.386 94.12C673.8 100.413 675.506 107.773 675.506 116.2C675.506 124.627 673.8 132.04 670.386 138.44C666.973 144.733 662.173 149.693 655.986 153.32C649.906 156.84 642.76 158.6 634.546 158.6ZM634.546 145.32C638.6 145.32 642.653 144.36 646.706 142.44C650.76 140.52 654.12 137.427 656.786 133.16C659.56 128.787 660.946 123.08 660.946 116.04C660.946 109 659.56 103.347 656.786 99.08C654.12 94.8133 650.76 91.7733 646.706 89.96C642.653 88.04 638.6 87.08 634.546 87.08C630.493 87.08 626.386 88.04 622.226 89.96C618.173 91.7733 614.813 94.8133 612.146 99.08C609.48 103.347 608.146 109 608.146 116.04C608.146 123.08 609.48 128.787 612.146 133.16C614.813 137.427 618.173 140.52 622.226 142.44C626.386 144.36 630.493 145.32 634.546 145.32ZM703.09 157.8C701.063 157.8 699.357 157.107 697.97 155.72C696.583 154.333 695.89 152.627 695.89 150.6V46.76C695.89 44.6267 696.583 42.8667 697.97 41.48C699.357 40.0933 701.063 39.4 703.09 39.4C705.223 39.4 706.983 40.0933 708.37 41.48C709.757 42.8667 710.45 44.6267 710.45 46.76V150.6C710.45 152.627 709.757 154.333 708.37 155.72C706.983 157.107 705.223 157.8 703.09 157.8ZM772.214 158.6C759.2 158.6 749.014 154.92 741.654 147.56C734.4 140.093 730.774 129.64 730.774 116.2C730.774 108.947 732.107 102.12 734.774 95.72C737.44 89.2133 741.6 83.9333 747.254 79.88C752.907 75.8267 760.16 73.8 769.014 73.8C777.227 73.8 784.16 75.72 789.814 79.56C795.467 83.2933 799.734 88.2 802.614 94.28C805.6 100.36 807.094 106.973 807.094 114.12C807.094 116.147 806.4 117.853 805.014 119.24C803.734 120.627 801.974 121.32 799.734 121.32H745.494C746.347 128.467 749.067 134.227 753.654 138.6C758.24 142.867 764.854 145 773.494 145C778.294 145 782.347 144.573 785.654 143.72C788.96 142.76 792.107 141.533 795.094 140.04C795.947 139.613 796.907 139.4 797.974 139.4C799.68 139.4 801.174 139.987 802.454 141.16C803.734 142.333 804.374 143.827 804.374 145.64C804.374 146.92 803.947 148.093 803.094 149.16C802.347 150.12 801.387 150.92 800.214 151.56C796.694 153.587 792.854 155.293 788.694 156.68C784.64 157.96 779.147 158.6 772.214 158.6ZM745.494 109.48H792.694C792.374 103.933 790.934 99.4533 788.374 96.04C785.92 92.6267 782.934 90.12 779.414 88.52C775.894 86.92 772.427 86.12 769.014 86.12C765.6 86.12 762.134 86.92 758.614 88.52C755.094 90.12 752.107 92.6267 749.654 96.04C747.2 99.4533 745.814 103.933 745.494 109.48ZM852.759 158.6C846.892 158.6 841.559 157.96 836.759 156.68C832.065 155.4 827.692 153.64 823.639 151.4C821.825 150.12 820.919 148.36 820.919 146.12C820.919 144.52 821.505 143.08 822.679 141.8C823.852 140.413 825.345 139.72 827.159 139.72C828.119 139.72 829.079 139.933 830.039 140.36C832.919 141.64 836.065 142.76 839.479 143.72C842.999 144.68 847.105 145.16 851.799 145.16C857.985 145.16 862.465 144.2 865.239 142.28C868.119 140.253 869.559 137.427 869.559 133.8C869.559 131.453 868.385 129.64 866.039 128.36C863.799 127.08 860.812 126.013 857.079 125.16C853.452 124.2 849.612 123.24 845.559 122.28C841.505 121.213 837.612 119.827 833.879 118.12C830.252 116.307 827.265 113.907 824.919 110.92C822.679 107.827 821.559 103.88 821.559 99.08C821.559 91.8267 824.172 85.8 829.399 81C834.625 76.2 842.412 73.8 852.759 73.8C857.132 73.8 861.239 74.1733 865.079 74.92C869.025 75.6667 872.652 76.6267 875.959 77.8C877.452 78.2267 878.572 79.08 879.319 80.36C880.172 81.5333 880.599 82.7067 880.599 83.88C880.599 85.5867 879.959 87.08 878.679 88.36C877.505 89.64 876.012 90.28 874.199 90.28C873.772 90.28 873.399 90.28 873.079 90.28C872.759 90.1733 872.439 90.0667 872.119 89.96C869.559 89.1067 866.732 88.4133 863.639 87.88C860.652 87.3467 857.399 87.08 853.879 87.08C848.012 87.08 843.479 88.1467 840.279 90.28C837.079 92.4133 835.479 95.08 835.479 98.28C835.479 101.053 836.599 103.187 838.839 104.68C841.185 106.173 844.172 107.4 847.799 108.36C851.532 109.213 855.425 110.12 859.479 111.08C863.639 112.04 867.532 113.427 871.159 115.24C874.892 116.947 877.879 119.347 880.119 122.44C882.465 125.533 883.639 129.693 883.639 134.92C883.639 141.427 881.025 147.027 875.799 151.72C870.679 156.307 862.999 158.6 852.759 158.6Z" fill="#12BFC5"/>
</svg>
