<svg width="1150" height="400" viewBox="0 0 1150 400" fill="none" xmlns="http://www.w3.org/2000/svg">
<path d="M89.6023 175.443C89.7917 170.708 88.4091 167.053 85.4545 164.477C82.5379 161.902 78.125 160.614 72.2159 160.614C68.2008 160.614 64.7159 161.182 61.7614 162.318C58.8068 163.417 56.4394 164.951 54.6591 166.92C52.9167 168.852 51.8371 171.087 51.4205 173.625C51.0038 175.708 51.1364 177.527 51.8182 179.08C52.5379 180.633 53.6553 181.977 55.1705 183.114C56.7235 184.212 58.5606 185.178 60.6818 186.011C62.803 186.807 65.0568 187.489 67.4432 188.057L77.4432 190.557C82.3295 191.693 86.7235 193.208 90.625 195.102C94.5644 196.996 97.8598 199.326 100.511 202.091C103.201 204.856 105.095 208.114 106.193 211.864C107.292 215.614 107.443 219.913 106.648 224.761C105.436 231.883 102.614 238.057 98.1818 243.284C93.75 248.473 87.9356 252.508 80.7386 255.386C73.5417 258.227 65.2083 259.648 55.7386 259.648C46.3447 259.648 38.4091 258.208 31.9318 255.33C25.4545 252.451 20.7386 248.189 17.7841 242.545C14.8674 236.864 13.9962 229.837 15.1705 221.466H38.9773C38.5606 225.367 39.1288 228.625 40.6818 231.239C42.2727 233.814 44.6402 235.765 47.7841 237.091C50.928 238.379 54.6212 239.023 58.8636 239.023C63.0682 239.023 66.7992 238.417 70.0568 237.205C73.3523 235.992 76.0227 234.307 78.0682 232.148C80.1136 229.989 81.3636 227.508 81.8182 224.705C82.2727 222.091 81.875 219.894 80.625 218.114C79.375 216.333 77.3674 214.818 74.6023 213.568C71.875 212.28 68.4848 211.144 64.4318 210.159L52.2727 206.977C42.8788 204.591 35.7765 200.86 30.9659 195.784C26.1553 190.708 24.4318 183.871 25.7955 175.273C27.0076 168.227 29.9432 162.072 34.6023 156.807C39.2992 151.504 45.2083 147.394 52.3295 144.477C59.4886 141.523 67.3106 140.045 75.7955 140.045C84.4318 140.045 91.7235 141.542 97.6705 144.534C103.617 147.489 107.955 151.617 110.682 156.92C113.409 162.223 114.242 168.398 113.182 175.443H89.6023ZM181.396 170.727L178.385 188.909H125.771L128.839 170.727H181.396ZM144.18 149.818H168.385L154.862 231.182C154.483 233.417 154.54 235.159 155.032 236.409C155.525 237.621 156.339 238.473 157.476 238.966C158.65 239.458 160.051 239.705 161.68 239.705C162.816 239.705 163.972 239.61 165.146 239.42C166.32 239.193 167.21 239.023 167.816 238.909L168.726 256.92C167.362 257.337 165.525 257.792 163.214 258.284C160.941 258.777 158.252 259.08 155.146 259.193C149.237 259.42 144.237 258.644 140.146 256.864C136.055 255.045 133.12 252.261 131.339 248.511C129.559 244.761 129.18 240.045 130.203 234.364L144.18 149.818ZM210.477 259.648C204.946 259.648 200.155 258.682 196.102 256.75C192.087 254.78 189.132 251.864 187.238 248C185.344 244.136 184.871 239.345 185.818 233.625C186.651 228.777 188.223 224.723 190.534 221.466C192.882 218.17 195.742 215.519 199.113 213.511C202.484 211.504 206.215 209.97 210.306 208.909C214.435 207.848 218.696 207.129 223.09 206.75C228.166 206.22 232.295 205.708 235.477 205.216C238.696 204.723 241.102 204.023 242.693 203.114C244.284 202.167 245.249 200.765 245.59 198.909V198.568C246.159 195.008 245.496 192.242 243.602 190.273C241.746 188.265 238.772 187.261 234.681 187.261C230.363 187.261 226.689 188.208 223.659 190.102C220.666 191.996 218.526 194.402 217.238 197.318L195.193 195.5C197.162 190.197 200.136 185.614 204.113 181.75C208.128 177.848 212.958 174.856 218.602 172.773C224.246 170.652 230.571 169.591 237.579 169.591C242.427 169.591 246.954 170.159 251.159 171.295C255.401 172.432 259.056 174.193 262.124 176.58C265.23 178.966 267.465 182.034 268.829 185.784C270.23 189.496 270.515 193.947 269.681 199.136L259.852 258H236.897L238.943 245.898H238.261C236.405 248.625 234.132 251.03 231.443 253.114C228.753 255.159 225.666 256.769 222.181 257.943C218.696 259.08 214.795 259.648 210.477 259.648ZM220.193 242.943C223.715 242.943 226.954 242.242 229.909 240.841C232.901 239.402 235.363 237.47 237.295 235.045C239.265 232.621 240.515 229.875 241.045 226.807L242.522 217.545C241.765 218.038 240.666 218.473 239.227 218.852C237.825 219.231 236.291 219.591 234.624 219.932C232.996 220.235 231.348 220.519 229.681 220.784C228.015 221.011 226.518 221.239 225.193 221.466C222.276 221.883 219.662 222.545 217.352 223.455C215.041 224.364 213.166 225.595 211.727 227.148C210.287 228.663 209.397 230.557 209.056 232.83C208.526 236.125 209.302 238.644 211.386 240.386C213.507 242.091 216.443 242.943 220.193 242.943ZM321.035 259.705C312.057 259.705 304.671 257.811 298.876 254.023C293.118 250.197 289.084 244.894 286.773 238.114C284.501 231.333 284.103 223.53 285.58 214.705C287.02 205.765 290.031 197.924 294.614 191.182C299.198 184.402 305.012 179.117 312.057 175.33C319.141 171.504 327.095 169.591 335.921 169.591C343.535 169.591 349.974 170.973 355.239 173.739C360.504 176.504 364.368 180.386 366.83 185.386C369.292 190.386 370.126 196.258 369.33 203H346.546C346.584 198.682 345.466 195.178 343.194 192.489C340.921 189.799 337.588 188.455 333.194 188.455C329.406 188.455 325.921 189.477 322.739 191.523C319.595 193.53 316.925 196.466 314.728 200.33C312.569 204.193 311.054 208.871 310.182 214.364C309.273 219.932 309.254 224.667 310.126 228.568C310.997 232.47 312.663 235.443 315.126 237.489C317.588 239.534 320.694 240.557 324.444 240.557C327.247 240.557 329.841 239.989 332.228 238.852C334.652 237.716 336.773 236.068 338.591 233.909C340.41 231.712 341.811 229.08 342.796 226.011H365.637C364.084 232.716 361.262 238.587 357.171 243.625C353.118 248.663 348.023 252.602 341.887 255.443C335.751 258.284 328.8 259.705 321.035 259.705ZM405.016 232.886L409.845 203.852H413.368L446.948 170.727H474.732L429.959 214.591H424.164L405.016 232.886ZM378.936 258L398.255 141.636H422.459L403.141 258H378.936ZM433.482 258L414.164 219.989L433.084 202.886L461.834 258H433.482ZM475.261 258L489.807 170.727H514.011L499.466 258H475.261ZM504.409 159.364C500.811 159.364 497.837 158.17 495.489 155.784C493.178 153.36 492.231 150.481 492.648 147.148C493.064 143.739 494.693 140.86 497.534 138.511C500.375 136.125 503.595 134.932 507.193 134.932C510.792 134.932 513.727 136.125 516 138.511C518.273 140.86 519.22 143.739 518.841 147.148C518.462 150.481 516.852 153.36 514.011 155.784C511.208 158.17 508.008 159.364 504.409 159.364ZM554.782 207.545L546.373 258H522.226L536.771 170.727H559.782L557.282 186.125H558.248C561.013 181.011 564.915 176.977 569.953 174.023C575.029 171.068 580.805 169.591 587.282 169.591C593.343 169.591 598.4 170.917 602.453 173.568C606.544 176.22 609.423 179.989 611.089 184.875C612.794 189.761 613.078 195.614 611.941 202.432L602.623 258H578.419L586.998 206.75C587.87 201.409 587.188 197.242 584.953 194.25C582.756 191.22 579.214 189.705 574.328 189.705C571.07 189.705 568.078 190.405 565.351 191.807C562.623 193.208 560.332 195.254 558.476 197.943C556.657 200.595 555.426 203.795 554.782 207.545ZM658.65 292.545C650.771 292.545 644.199 291.466 638.934 289.307C633.707 287.186 629.73 284.288 627.002 280.614C624.313 276.939 622.836 272.811 622.57 268.227L645.525 265.216C645.942 266.996 646.737 268.644 647.911 270.159C649.124 271.674 650.847 272.886 653.082 273.795C655.355 274.705 658.29 275.159 661.889 275.159C667.154 275.159 671.737 273.871 675.639 271.295C679.54 268.758 681.945 264.496 682.855 258.511L685.468 242.545H684.445C683.006 244.97 681.036 247.261 678.536 249.42C676.074 251.58 673.063 253.341 669.502 254.705C665.98 256.068 661.908 256.75 657.286 256.75C650.695 256.75 644.976 255.235 640.127 252.205C635.317 249.136 631.832 244.458 629.673 238.17C627.552 231.845 627.286 223.852 628.877 214.193C630.544 204.307 633.536 196.049 637.855 189.42C642.173 182.792 647.286 177.83 653.195 174.534C659.105 171.239 665.26 169.591 671.661 169.591C676.548 169.591 680.487 170.424 683.48 172.091C686.51 173.72 688.839 175.765 690.468 178.227C692.097 180.652 693.252 183.038 693.934 185.386H694.9L697.286 170.727H721.32L706.661 258.852C705.487 266.314 702.665 272.527 698.195 277.489C693.764 282.489 688.139 286.239 681.32 288.739C674.502 291.277 666.945 292.545 658.65 292.545ZM667.741 238.568C671.605 238.568 675.07 237.602 678.139 235.67C681.245 233.701 683.839 230.898 685.923 227.261C688.006 223.587 689.464 219.193 690.298 214.08C691.131 208.966 691.112 204.534 690.241 200.784C689.408 196.996 687.779 194.061 685.355 191.977C682.968 189.894 679.824 188.852 675.923 188.852C671.908 188.852 668.385 189.932 665.355 192.091C662.324 194.212 659.805 197.167 657.798 200.955C655.828 204.742 654.445 209.117 653.65 214.08C652.817 219.117 652.779 223.473 653.536 227.148C654.332 230.784 655.904 233.606 658.252 235.614C660.601 237.583 663.764 238.568 667.741 238.568Z" fill="#4D4D4D"/>
<rect x="750" width="400" height="400" rx="200" fill="#F79413"/>
<path d="M852.445 194.815L827.707 196.349C827.58 194.176 826.983 192.237 825.918 190.533C824.895 188.786 823.382 187.401 821.379 186.378C819.419 185.355 816.947 184.844 813.964 184.844C809.49 184.844 805.506 185.866 802.011 187.912C798.517 189.957 796.536 192.578 796.067 195.774C795.683 197.82 796.216 199.545 797.665 200.952C799.114 202.358 802.033 203.551 806.422 204.531L823.68 208.111C832.885 210.071 839.533 213.331 843.624 217.891C847.757 222.45 849.227 228.416 848.034 235.788C846.969 242.053 844.22 247.528 839.788 252.216C835.357 256.861 829.732 260.483 822.913 263.082C816.095 265.639 808.531 266.918 800.222 266.918C786.884 266.918 776.741 264.19 769.795 258.736C762.849 253.281 759.504 245.888 759.76 236.555L786.351 235.149C786.564 239.155 787.97 242.18 790.57 244.226C793.169 246.229 796.727 247.251 801.244 247.294C806.315 247.379 810.619 246.335 814.156 244.162C817.736 241.946 819.76 239.261 820.229 236.108C820.57 233.892 819.93 232.102 818.311 230.739C816.734 229.375 813.837 228.246 809.618 227.351L793.254 223.963C783.964 222.045 777.295 218.615 773.247 213.672C769.199 208.729 767.814 202.443 769.092 194.815C770.115 188.722 772.651 183.501 776.699 179.155C780.79 174.766 786.053 171.399 792.487 169.055C798.964 166.712 806.273 165.54 814.412 165.54C827.153 165.54 836.741 168.161 843.176 173.402C849.653 178.643 852.743 185.781 852.445 194.815ZM891.6 266.854C885.379 266.854 879.988 265.767 875.428 263.594C870.911 261.378 867.588 258.097 865.457 253.75C863.326 249.403 862.794 244.013 863.859 237.578C864.796 232.124 866.565 227.564 869.164 223.899C871.806 220.192 875.024 217.209 878.816 214.95C882.609 212.692 886.806 210.966 891.409 209.773C896.053 208.58 900.848 207.77 905.791 207.344C911.501 206.747 916.146 206.172 919.725 205.618C923.348 205.064 926.053 204.276 927.843 203.253C929.633 202.187 930.72 200.611 931.103 198.523V198.139C931.742 194.134 930.997 191.023 928.866 188.807C926.778 186.548 923.433 185.419 918.83 185.419C913.973 185.419 909.839 186.484 906.43 188.615C903.063 190.746 900.656 193.452 899.207 196.733L874.406 194.688C876.622 188.722 879.967 183.565 884.441 179.219C888.958 174.83 894.392 171.463 900.741 169.119C907.09 166.733 914.207 165.54 922.09 165.54C927.545 165.54 932.637 166.179 937.367 167.457C942.14 168.736 946.252 170.717 949.704 173.402C953.198 176.087 955.713 179.538 957.247 183.757C958.823 187.933 959.143 192.94 958.205 198.778L947.147 265H921.323L923.625 251.385H922.857C920.769 254.453 918.213 257.159 915.187 259.503C912.161 261.804 908.688 263.615 904.768 264.936C900.848 266.214 896.458 266.854 891.6 266.854ZM902.531 248.061C906.494 248.061 910.137 247.273 913.461 245.696C916.828 244.077 919.598 241.903 921.771 239.176C923.987 236.449 925.393 233.359 925.99 229.908L927.651 219.489C926.799 220.043 925.563 220.533 923.944 220.959C922.367 221.385 920.642 221.79 918.767 222.173C916.934 222.514 915.08 222.834 913.205 223.132C911.33 223.388 909.647 223.643 908.156 223.899C904.875 224.368 901.934 225.114 899.335 226.136C896.735 227.159 894.626 228.544 893.007 230.291C891.387 231.996 890.386 234.126 890.002 236.683C889.406 240.391 890.279 243.224 892.623 245.185C895.009 247.102 898.312 248.061 902.531 248.061ZM1040.46 166.818L1037.07 187.273H977.881L981.333 166.818H1040.46ZM998.592 143.295H1025.82L1010.61 234.83C1010.18 237.344 1010.25 239.304 1010.8 240.71C1011.35 242.074 1012.27 243.033 1013.55 243.587C1014.87 244.141 1016.45 244.418 1018.28 244.418C1019.56 244.418 1020.86 244.311 1022.18 244.098C1023.5 243.842 1024.5 243.651 1025.18 243.523L1026.21 263.786C1024.67 264.254 1022.6 264.766 1020.01 265.32C1017.45 265.874 1014.42 266.214 1010.93 266.342C1004.28 266.598 998.656 265.724 994.053 263.722C989.451 261.676 986.149 258.544 984.146 254.325C982.143 250.107 981.717 244.801 982.867 238.409L998.592 143.295ZM1137.46 194.815L1112.73 196.349C1112.6 194.176 1112 192.237 1110.94 190.533C1109.91 188.786 1108.4 187.401 1106.4 186.378C1104.44 185.355 1101.97 184.844 1098.98 184.844C1094.51 184.844 1090.52 185.866 1087.03 187.912C1083.54 189.957 1081.55 192.578 1081.09 195.774C1080.7 197.82 1081.23 199.545 1082.68 200.952C1084.13 202.358 1087.05 203.551 1091.44 204.531L1108.7 208.111C1117.9 210.071 1124.55 213.331 1128.64 217.891C1132.78 222.45 1134.25 228.416 1133.05 235.788C1131.99 242.053 1129.24 247.528 1124.81 252.216C1120.38 256.861 1114.75 260.483 1107.93 263.082C1101.11 265.639 1093.55 266.918 1085.24 266.918C1071.9 266.918 1061.76 264.19 1054.81 258.736C1047.87 253.281 1044.52 245.888 1044.78 236.555L1071.37 235.149C1071.58 239.155 1072.99 242.18 1075.59 244.226C1078.19 246.229 1081.75 247.251 1086.26 247.294C1091.33 247.379 1095.64 246.335 1099.17 244.162C1102.75 241.946 1104.78 239.261 1105.25 236.108C1105.59 233.892 1104.95 232.102 1103.33 230.739C1101.75 229.375 1098.86 228.246 1094.64 227.351L1078.27 223.963C1068.98 222.045 1062.31 218.615 1058.27 213.672C1054.22 208.729 1052.83 202.443 1054.11 194.815C1055.13 188.722 1057.67 183.501 1061.72 179.155C1065.81 174.766 1071.07 171.399 1077.51 169.055C1083.98 166.712 1091.29 165.54 1099.43 165.54C1112.17 165.54 1121.76 168.161 1128.19 173.402C1134.67 178.643 1137.76 185.781 1137.46 194.815Z" fill="white"/>
</svg>
